<?xml version="1.0" encoding="UTF-8"?>
<!-- Generator: Adobe Illustrator 14.0.0, SVG Export Plug-In . SVG Version: 6.00 Build 43363)  -->
<!DOCTYPE svg PUBLIC "-//W3C//DTD SVG 1.0//EN" "http://www.w3.org/TR/2001/REC-SVG-20010904/DTD/svg10.dtd">
<svg version="1.0" id="Ebene_1" xmlns="http://www.w3.org/2000/svg" xmlns:xlink="http://www.w3.org/1999/xlink" x="0px" y="0px" width="594.772px" height="69.572px" viewBox="0 0 594.772 69.572" enable-background="new 0 0 594.772 69.572" xml:space="preserve">
<path fill="#b9b6b696" d="M560.456,26.707l-5.503-4.469c-0.448,2.881-0.18,6.525-0.008,9.647  C557.075,30.264,559.125,28.911,560.456,26.707 M585.744,26.738c-1.403-0.834-3.247-4.784-4.751-2.139l-0.828,1.33l0.196,27.455  c1.343,1.53,3.435,1.904,5.364,2.378c1.037-0.382,1.775-1.871,3.002-1.296l-0.051,1.218l-7.975,7.334l-1.738-0.038l-9.929-4.087  c-0.031-1.219,1.526-1.427,1.838-2.484l-0.185-30.409c-0.194-1.039-0.832-1.979-1.715-2.65l-1.216,0.03l-11.964,11.347  c-0.502,0.541-0.736,1.501-0.458,2.274l3.304,3.474c-0.317,0.97-1.252,1.605-2.111,2.23l-1.309-0.219l-0.325,0.872l0.229,8.687  l0.631,1.023c2.286,0.896,4.601,2.75,7.106,2.333c1.621-1.167,3.149-2.509,4.42-3.761c0.52-0.013,1.292-0.207,1.23,0.573  l-0.316,1.139l-10.69,9.667c-4.014-0.244-7.37-2.504-10.981-4.06l-0.629-0.854c-0.561-11.542-0.678-22.665-0.276-34.054  c4.596-3.34,9.659-6.08,14.357-9.074l1.129-0.027l6.847,5.823c2.406-1.113,3.811-3.756,5.771-5.193  c2.354,0.198,4.492,2.049,5.411,4.201c0.547,0.769,0.397,1.813,1.021,2.491c2.899-2.246,4.319-4.279,7.128-6.616l0.962,0.234  l6.528,6.872l-0.75,1.495l-9.148,9.105c-0.506,0.361-1.046-0.232-1.231-0.665C584.195,30.6,589.022,28.997,585.744,26.738   M532.227,27.266l-7.429-4.67c-0.431-0.076-1.304-0.313-1.558,0.215l0.112,23.898l0.378,1.114c2.091,0.471,4.336,3.45,6.453,0.878  l0.12-18.601L532.227,27.266z M539.815,64.962c-4.918,4.558-12.836,4.072-19.454,3.549c-2.635-0.797-5.444-1.945-6.038-4.793  c-0.557-1.289-0.069-2.692,0.594-3.837c0.838-1.331,2.206-2.147,3.677-2.271c1.478-0.039,2.881,0.447,3.864,1.461  c0.896,0.931,1.198,2.749,0.801,4.152c-0.305,1.652-1.593,2.213-2.96,2.944c2.735,1.751,6.288,1.31,9.395,0.535  c1.12-0.544,1.871-1.525,1.933-2.745c-0.283-4.255-1.096-8.578-1.383-12.822l-7.146,5.924c-2.899-1.145-5.618-2.292-8.358-3.958  l-0.644-1.372l0.011-25.901c5.03-4.036,10.685-7.059,15.903-10.234c3.865,1.547,7.149,4.155,10.941,6.234  c0.466,1.549-1.438,1.598-1.577,2.993c0.921,11.799-1.18,24.71,1.719,35.498C541.487,62.226,540.828,63.718,539.815,64.962   M461.473,53.456c-0.276-3.991-0.473-8.244-1.874-11.859l-1.442,1.427c-4.175,6.458-4.76,17.25-0.582,24.181  c0.718,0.937,2.01,0.204,2.33-0.761C461.102,62.332,461.593,58.058,461.473,53.456 M463.828,67.038  c-1.703,1.435-3.912,3.233-6.633,2.256c-3.329-1.034-5.257-4.723-5.771-8.098c-1.709-8.647,1.212-16.895,7.065-22.351  c-1.009-1.885-2.787-3.403-5.119-3.083c-0.966,0.112-1.972,1.18-2.954,0.34c-0.439-0.338-0.199-0.952,0.055-1.307  c2.13-1.62,5.417-2.228,6.391-4.773c0.368-2.793-0.324-5.816-3.13-6.61c-1.662-0.562-2.1,2.491-3.538,0.701l0.223-1.222l7.112-7.399  c2.878,0.361,4.936,2.565,7.406,3.889c2.043,1.778,1.26,5.181,1.416,7.786c-0.561,1.928-2.46,2.24-3.916,3.146  c1.336,1.271,3.184,2.173,4.354,3.796c0.788-0.104,1.543-0.821,2.341-0.232c0.269,0.338,0.292,1.035,0.038,1.472  c-0.682,0.285-2.41,0.589-1.435,1.777C470.509,46.703,470.667,59.475,463.828,67.038 M487.998,27.557l-0.021-0.697  c-1.682-1.434-3.386-3.125-5.492-4.284l0.255,9.896L487.998,27.557z M513.29,54.096l-0.492,1.058l-9.779,8.511  c-2.464-1.325-4.877-3.957-7.102-5.9c-0.298-1.467,1.693-1.776,2.088-3.182l-0.332-29.277c-0.105-0.865-0.726-1.197-1.354-1.875  l-1.121,0.376c-3.892,4.013-8.576,7.527-12.281,12.052c-0.291,2.096,1.741,3.519,3.258,4.785c-0.065,0.954-1.182,1.769-1.944,2.309  c-0.604,0.105-1.233-0.489-1.654,0.04l0.159,9.211c0.27,0.339,0.2,0.863,0.722,1.023c0,0,0.265,0.171,0.531,0.513  c2.278,0.542,4.43,3.011,6.826,1.728c1.89-1.007,2.691-3.458,5.037-3.522c0.274,0.433,0.383,1.296-0.127,1.657l-10.532,9.746  l-1.731,0.047l-9.229-4.189l-0.628-0.763l-0.517-32.837l0.576-1.319l14.095-8.975l1.408,0.395l6.043,5.145l1.044-0.114l5.943-5.021  c2.383,1.15,4.802,4.045,7.021,5.721c0.478,1.556-1.771,2.05-2.165,3.623l0.469,27.713c0.371,0.859,0.918,1.974,2.045,1.945  C511.218,54.932,512.104,52.042,513.29,54.096 M282.587,55.536l-0.462-27.455l-0.629-1.028l-4.24-2.58  c-0.354-0.251-1.147-0.583-1.659-0.131c-0.528,9.92-0.163,20.341,0.282,30.497l3.696,1.987  C280.807,57.232,281.73,56.169,282.587,55.536 M297.458,55.752l-0.151,1.048l-8.148,7.34c-2.192-0.727-4.151-2.417-5.925-3.933  c-0.539-0.594-0.297-1.294-0.671-2.064l-6.884,6.002c-3.144-0.878-5.968-2.362-8.884-3.942c-0.969-0.931-0.222-2.341-0.699-3.626  l-8.414,7.431l-1.557-0.049l-9.25-4.796c-0.038-1.394,1.947-1.704,2.265-3.102c0.289-12.175,0.163-23.64,0.107-35.722  c-1.157-1.1-3.403-0.347-4.977-0.912l-0.008-0.433c6.55-1.913,11.284-7.077,13.461-13.475c0.083-0.091,0.252-0.184,0.516-0.102  c0.448,3.897-0.235,7.478,0.563,11.457l6.531,0.351c0.623,0.591,0.037,1.478,0.143,2.252c-2.071,0.581-4.341-0.055-6.335,0.342  l-0.521,0.274l-0.045,34.504c0.389,1.557,2.043,1.685,3.275,2.344c1.914,0.04,2.286-2.224,4.218-1.672  c0.378-8.877-0.318-18.677,0.053-27.814c4.679-3.856,10.25-6.694,15.464-10.135l1.566,0.133l9.979,5.905  c0.727,1.288-1.514,1.955-1.498,3.086l0.31,27.887c-0.148,1.134,1.085,1.71,1.798,2.299  C295.484,56.931,296.02,54.223,297.458,55.752 M151.793,29.064l-0.022-0.785c-1.856-1.254-3.292-3.126-5.406-4.199l0.076,9.555  C148.229,32.458,150.263,30.582,151.793,29.064 M180.484,56.12c0.447,0.341,0.108,0.87-0.05,1.219l-7.896,7.338l-1.915-0.126  l-9.744-3.747c-0.473-1.285,1.518-1.683,1.753-2.825l0.01-29.374c0.131-1.566-0.955-3.278-2.358-3.675l-1.289,0.38l-11.372,10.638  c-1.273,0.992-1.05,2.898,0.018,4.001c0.799,0.675,1.69,1.434,2.226,2.202c-0.404,0.966-1.172,1.511-2.02,2.225l-1.485-0.306  c0.085,3.3-0.255,6.958,0.266,10.158c2.03,1.161,4.413,2.489,6.855,2.949c2.409-0.933,3.379-3.827,5.978-3.976  c0.445,0.508,0.206,1.297-0.215,1.741l-10.784,9.751c-3.754-0.766-7.366-2.668-10.716-4.408l-0.635-1.027V26.054  c4.78-3.425,9.661-6.065,14.533-9.243l1.229,0.405l6.922,5.637c2.054-1.265,3.894-4.009,6.024-5.543  c2.88,0.621,5.401,3.421,5.904,6.362l0.445,0.427l6.78-6.612l0.875-0.017l6.603,6.686l0.019,0.954l-9.813,9.906  c-0.52,0.101-0.959-0.06-1.063-0.583c0.737-1.842,2.365-2.664,3.197-4.165c-0.921-2.063-2.692-3.146-4.474-4.836  c-1.037,0.287-1.796,1.176-2.291,2.147l0.204,27.717c1.851,0.816,4.155,2.848,6.295,1.488  C178.835,56.08,179.868,55.791,180.484,56.12 M71.983,57.746L71.96,30.283l-0.604-2.935l-4.773-3.095  c-0.435-0.165-1.322-0.659-1.563,0.13l0.242,29.02c0.936,2.496,3.911,3.287,5.94,4.624L71.983,57.746z M80.859,54.907l-14.872,9.779  l-1.215,0.03c-3.004-2.094-6.766-2.955-8.761-6.286l0.129-31.384l15.385-9.871c3.243,1.216,6.168,3.139,9.002,5.236l0.47,1.29  C80.74,33.879,81.724,44.891,80.859,54.907 M35.124,27.515c-0.968-3.629,0.045-8-0.825-11.54c-1.458-2.482-5.37-2.728-7.317-0.766  c-3.136,3.3-3.62,8.007-3.331,12.344C27.298,27.548,31.393,27.956,35.124,27.515 M52.218,53.051  c0.623,0.418,0.291,1.209-0.049,1.646l-9.994,9.655l-0.865,0.198c-2.569-1.759-5.741-3.5-6.602-6.346  c0.313-8.179-0.061-15.818,0.076-23.47c-0.474-1.729-1.382-3.268-3.137-3.83c-2.62-0.538-5.172-1.603-7.934-0.922l-0.674,0.629  c0.514,9.719,5.369,22.624-2.597,30.304c-3.136,3.042-7.698,4.812-12.24,3.891c-3.679-1.126-6.189-4.102-7.067-7.724  c-0.765-2.849,0.276-5.831,2.058-7.619c1.448-1.255,3.248-1.996,5.338-1.961c1.921,0.473,3.934,1.111,4.859,3  c0.912,1.543,1.055,3.887,0.404,5.642c-0.573,1.403-1.76,2.391-3.219,3.034c-1.625,1.001-4.103-0.757-5.017,0.913  c0.123,1.213,1.091,1.884,2.063,2.473c2.457,0.972,5.132,0.21,6.824-1.576c2.825-4.936,1.281-10.894,0.013-16.16  c-3.405-10.34-7.344-24.929,0.583-34.257c6.011-6.062,14.91-8.04,23.804-6.966c4.712,0.741,9.891,2.868,12.264,6.977  c4.366,7.534,2.646,18.269-2.491,24.573c-0.346,0.182-0.59,0.708-1.033,0.376c1.033-3.767,2.604-6.764,3.203-10.602  c0.27-6.005-0.495-12.154-4.68-15.954C41.231,5.106,34.26,4.59,28.14,6.4c-4.739,1.604-6.879,6.181-7.368,10.974  c0.232,2.079-0.306,4.615,0.691,6.411c0.568-1.75,0.776-3.845,1.422-5.687c0.93-4.193,4.762-7.164,8.463-8.649  c3.714-0.878,8.577-0.917,11.349,1.876c3.615,5.383-1.721,14.124,5.228,17.328l-0.076,0.351c-2.676,0.682-5.828-0.104-8.679,0.574  c1.604,1.176,4.291,1.195,4.961,3.436l0.346,19.715c0.727,1.291,1.203,2.753,2.696,3.41C49.15,55.475,50.222,53.272,52.218,53.051   M362.313,33.542c-2.611-0.106-5.664-0.458-8.255,0.219l-1.562,6.558l0.273,0.513l7.656,0.15l0.591-0.536  C361.478,38.172,362.458,35.801,362.313,33.542 M427.37,18.804c-1.693-1.516-3.817-2.94-5.91-3.405l-7.626,7.497  c-0.25,0.437-0.319,1.222,0.125,1.562c1.23,0.488,1.884-1.007,3.018-1.037c0.53,0.336,0.894,0.844,1.16,1.36l0.206,27.805  c0.583,2.418-1.836,2.74-2.314,4.582l6.421,5.998l1.308,0.229l5.95-5.109c2.389-1.886-1.714-2.475-1.683-4.476l-0.261-26.674  c0.556-1.746,1.639-3.515,3.72-3.834c1.245,1.014,2.648,1.491,3.127,3.135l0.218,31.542l0.295,1.294  c2.031,1.337,3.825,3.558,6.277,4.185l8.248-6.996l0.488-1.146c-0.924-2.147-2.417,0.585-3.896,0.542  c-0.874-0.247-1.77-0.997-1.965-1.951l-0.069-29.374c0.131-1.48,2.035-1.789,1.742-3.173l-9.272-5.757l-1.575-0.126l-6.428,6.682  l-0.866,0.287C427.694,21.226,428.003,19.917,427.37,18.804 M113.136,19.82c-1.766-1.169-3.461-2.691-5.723-2.89l-5.425,5.354  c-0.753,1.15-2.802,2.16-1.987,3.528c1.321,0.751,1.708-1.172,2.921-1.119c0.702,0.241,0.979,0.671,1.253,1.269  c0.661,8.852,0.138,18.426,0.268,27.024c0.586,2.245-0.842,4.106-2.471,5.194c1.46,2.653,4.546,4.4,6.603,6.512l0.876,0.071  l6.539-5.735c0.479-1.576-1.881-2.121-2.271-3.588l-0.022-27.636l2.868-3.207c2.006,0.294,3.081,1.313,4.079,3.025l0.145,32.149  l0.378,1.117c2.201,1.161,3.917,3.465,6.185,3.924l7.984-6.985l0.667-1.147c-1.191-2.142-2.32,0.933-3.896,0.624  c-0.882-0.413-1.678-0.827-1.792-1.952c-0.182-10.336-0.43-19.718,0-29.898c0.322-1.051,1.874-1.438,1.665-2.649l-9.359-5.839  l-1.215-0.055l-7.29,7.144C113.476,22.854,114.038,20.924,113.136,19.82 M505.513,2.853c-1.241-0.924-2.48-1.763-4.205-1.37  c-1.897,0.399-2.737,1.725-3.222,3.475c-0.43,3.139,2.246,5.852,4.119,7.716c1.439-1.518,2.869-3.379,4.041-5.235  C506.899,5.95,506.418,4.132,505.513,2.853 M339.416,5.464l-0.523,0.013c-1.663,5.955-6.979,12.002-13.282,13.646l0.011,0.347  c1.58,0.737,4.24-0.545,4.987,1.345l0.225,35.109c-0.396,1.483-1.866,1.873-2.354,3.184c2.838,2.013,6.701,3.65,10.13,5.042  c3.42-2.177,5.866-4.936,8.752-7.619l0.325-0.967c-1.511-1.086-2.151,0.756-3.359,1.31c-1.649,0.042-3.493-0.691-4.229-2.144  l-0.306-31.632l0.271-3.046l6.502-0.522c0.509-0.534,0.393-1.748,0.112-2.345l-6.525-0.264l-0.448-0.601  C339.784,12.754,339.686,9.02,339.416,5.464 M310.131,5.45c-2.227-1.767-6.198-1.14-8.418,0.568  c-1.875,1.611-1.894,4.133-1.743,6.39c1.782,4.906,7.85,4.486,12.312,5.501c1.132,0.227,2.198,1.066,2.662,2.185  c0.516,12.939,0.287,24.328,0.182,36.761l-0.604,0.36c-2.303-1.587-5.61-2.111-6.385-5.136c-0.021-10.688-0.231-21.979-0.508-32.486  l-0.441-0.073c-2.817,1.722-5.735,3.105-8.194,5.341c-0.146,11.041-0.387,21.907,0.096,33.369c2.759,2.536,6.188,4.181,9.274,5.842  c5.215-3.182,11.125-6.55,15.98-10.326l-0.211-34.586l-0.979-3.973c-3.803-6.071-12.367-4.281-18.83-5.672  c-0.707-0.336-1.228-0.758-1.34-1.533c1.052-2.893,4.574-1.248,6.981-2.098L310.131,5.45z M392.094,5.912  c-4.644-4.834-13.273-5.565-19.362-2.709c-5.228,2.832-8.917,8.052-8.57,14.558c-0.332,3.834,2.172,6.817,5.168,8.297  c3.529,1.731,7.717-0.809,11.231,0.666c0.79,0.322,0.383,1.378,0.049,1.911c-2.117,2.227-6.053,1.196-8.752,1.006  c-0.152,0.701,0.885,0.76,1.332,1.185c3.252,1.225,7.156,0.943,9.783-1.472c1.943-2.138,2.72-5.547,1.604-8.474  c-2.451-4.106-7.812-2.753-12.066-2.726c-2.344-0.205-4.932,0.821-6.293-1.401c-0.377-1.117-0.237-2.511,0.35-3.399  c1.146-2.633,4.148-3.931,7.1-4.355c4.5-0.635,8.719,1.165,11.487,4.131c4.498,5.879,3.961,15.019,2.403,22.095  c-1.505,5.518-2.727,11.81-7.51,15.145c-1.103,1.077-3.646,0.098-3.595,2.186c-4.564,1.595-8.43,6.82-11.021,10.633  c0.095,0.167,0.371,0.509,0.711,0.413c1.354-1.429,3.052-2.776,4.937-3.696c3.022-0.944,6.09-0.069,8.725,0.902  c2.27,0.549,4.056,2.417,6.494,2.612c4.481-4.724,8.17-10.12,12.825-14.678c0.316,1.995,0.363,3.82,0.149,5.907  c-0.479,1.314-1.946,1.787-2.35,3.014l6.414,5.827l1.222,0.322c3.659-3.138,7.234-5.754,10.1-9.302  c-1.032-2.926-2.147,1.092-4.074,0.274c-0.883-0.321-1.507-1.085-1.707-2.036l-0.323-42.14l1.023-4.198  c0.999-1.769,2.622-2.852,4.603-3.426l-0.01-0.435c-3.83-0.07-8.543-0.904-11.701,1.176c-1.781,1.697-3.022,4.076-3.127,6.604  c-0.152,11.123-0.189,22.599-0.076,33.976l-8.746,11.007l-0.941,0.549c-2.561-1.5-5.46-2.731-8.43-3.43  c5.647-3.361,10.888-8.968,13.505-15.128C398.665,27.811,399.341,13.803,392.094,5.912 M237.65,8.91  c-2.614-0.452-4.324-2.582-6.361-4.003c-6-3.145-13.127-0.354-18.624,2.312c-8.564,4.923-14.301,14.805-14.454,25.41  c-0.292,12.09,4.389,24.914,14.353,30.303c7.386,3.458,17.797,2.833,23.645-2.878c9.686-8.688,9.883-24.248,6.003-36.313  c-5.085-7.951-14.91-1.783-22.298-2.023c-1.14-0.23-1.865-1.429-1.728-2.654c0.048-1.476,1.68-2.476,2.794-2.937  c0.346-0.181,1.299-0.382,0.759-1.066c-1.15-0.749-2.252,0.237-3.295,0.524c-3.745,2.968-5.504,8.664-4.071,13.663  c1.57,3.608,6.079,3.321,9.644,3.135c5.649,0.207,11.979-3.616,16.854-0.093c2.253,2.898,1.861,7.859,1.16,11.269  c-1.607,4.906-4.982,8.735-9.887,10.515c-5.251,1.88-10.865,0.025-15.277-2.384c-7.609-5.446-10.647-15.275-10.988-24.914  c0.249-7.045,1.072-15.412,8.392-18.122c7.844-2.375,10.94,6.406,17.814,6.66c4.185,0.76,7.167-1.839,9.089-4.585  c0.75-1.492,0.856-3.671,0.125-5.214c-0.463-1.117-1.525-1.875-2.66-2.105c-0.523-0.16-1.57-0.218-1.637,0.566  c0.098,0.255,0.368,0.767,0.879,0.581c0.97,0.325,1.949,1.258,1.98,2.384C239.892,8.158,238.688,8.797,237.65,8.91 M66.455,5.92  c-0.804-0.933-2.211-1.161-3.419-1.039c-1.551,0.475-2.478,1.627-2.872,3.202c-0.045,1.564,0.597,2.939,1.498,4.045  c0.886,0.671,1.374,2.835,2.664,2.278C65.655,12.025,69.321,9.148,66.455,5.92 M87.521,7.543c-0.901-1.458-1.092-5.1-3.656-3.729  c0.409,2.421,2.375,4.456,2.188,7.334l0.757,38.733l-0.197,5.747c-0.397,1.31-1.696,1.604-2.186,2.834  c1.622,2.221,3.74,3.553,5.708,5.59l1.583,0.648l9.842-8.774l0.243-1.052c-1.083-1.619-2.329,0.763-3.628,0.883  c-1.048-0.231-1.848-0.996-2.135-2.03l-0.273-33.363c-0.109-4.172-0.763-9.28,0.877-13.15c0.722-2.277,2.894-2.248,4.336-3.591  c-2.875-0.355-6.438-0.35-9.471,0.078C89.346,3.929,88.806,6.727,87.521,7.543 M77.1,5.92c2.862,3.228-0.805,6.105-2.129,8.487  c-1.289,0.557-1.778-1.607-2.667-2.278c-0.897-1.106-1.54-2.48-1.493-4.045c0.392-1.575,1.316-2.727,2.867-3.202  C74.89,4.759,76.289,4.988,77.1,5.92"/>
<path d="M559.575,25.321l-5.5-4.469c-0.454,2.881-0.182,6.528-0.012,9.647C556.194,28.878,558.239,27.526,559.575,25.321   M584.869,25.349c-1.408-0.83-3.25-4.78-4.755-2.132l-0.827,1.323L579.483,52c1.343,1.531,3.438,1.904,5.361,2.381  c1.034-0.384,1.775-1.869,3.005-1.297l-0.051,1.22l-7.978,7.332l-1.733-0.035l-9.931-4.09c-0.033-1.216,1.521-1.427,1.845-2.479  l-0.189-30.414c-0.199-1.037-0.833-1.978-1.719-2.647l-1.214,0.027l-11.961,11.348c-0.501,0.541-0.744,1.503-0.465,2.273  l3.308,3.479c-0.32,0.967-1.259,1.602-2.11,2.227l-1.31-0.222l-0.325,0.874l0.229,8.685l0.631,1.026  c2.282,0.896,4.601,2.747,7.1,2.335c1.625-1.169,3.156-2.512,4.427-3.764c0.516-0.013,1.299-0.207,1.227,0.572l-0.313,1.14  l-10.694,9.665c-4.01-0.241-7.361-2.499-10.982-4.06l-0.623-0.851c-0.561-11.543-0.684-22.667-0.283-34.055  c4.607-3.341,9.662-6.082,14.363-9.071l1.122-0.028l6.843,5.819c2.413-1.111,3.814-3.756,5.788-5.193  c2.343,0.2,4.482,2.049,5.404,4.201c0.541,0.771,0.396,1.813,1.024,2.493c2.892-2.246,4.318-4.281,7.123-6.618l0.962,0.236  l6.532,6.869l-0.747,1.498l-9.149,9.104c-0.508,0.362-1.047-0.233-1.233-0.667C583.319,29.215,588.145,27.612,584.869,25.349   M531.352,25.881l-7.432-4.669c-0.429-0.074-1.3-0.311-1.558,0.217l0.112,23.896l0.372,1.114c2.096,0.473,4.349,3.453,6.461,0.879  l0.116-18.599L531.352,25.881z M538.932,63.58c-4.919,4.555-12.835,4.072-19.449,3.546c-2.639-0.797-5.447-1.941-6.037-4.79  c-0.564-1.289-0.076-2.696,0.59-3.84c0.841-1.328,2.206-2.147,3.679-2.271c1.481-0.034,2.881,0.444,3.865,1.462  c0.896,0.933,1.202,2.751,0.798,4.152c-0.298,1.654-1.593,2.213-2.96,2.945c2.741,1.752,6.289,1.311,9.398,0.534  c1.117-0.549,1.871-1.524,1.93-2.743c-0.281-4.258-1.097-8.579-1.383-12.825l-7.145,5.924c-2.902-1.144-5.617-2.29-8.354-3.959  l-0.646-1.369l0.019-25.903c5.022-4.037,10.677-7.057,15.89-10.232c3.866,1.547,7.151,4.156,10.948,6.234  c0.467,1.547-1.438,1.598-1.579,2.991c0.917,11.799-1.176,24.711,1.71,35.499C540.6,60.84,539.946,62.335,538.932,63.58   M460.595,52.071c-0.28-3.989-0.473-8.244-1.873-11.858l-1.438,1.424c-4.181,6.46-4.764,17.251-0.594,24.184  c0.721,0.935,2.013,0.204,2.334-0.764C460.22,60.946,460.713,56.673,460.595,52.071 M462.946,65.655  c-1.694,1.435-3.908,3.234-6.63,2.256c-3.327-1.036-5.252-4.724-5.77-8.098c-1.711-8.647,1.205-16.894,7.062-22.351  c-1.006-1.885-2.788-3.405-5.121-3.083c-0.953,0.112-1.968,1.181-2.953,0.338c-0.436-0.335-0.199-0.95,0.055-1.305  c2.137-1.62,5.421-2.229,6.396-4.773c0.36-2.793-0.325-5.818-3.134-6.612c-1.659-0.562-2.102,2.491-3.543,0.701l0.231-1.22  l7.114-7.401c2.869,0.36,4.932,2.565,7.397,3.891c2.044,1.775,1.265,5.179,1.414,7.784c-0.554,1.927-2.453,2.24-3.909,3.146  c1.339,1.271,3.184,2.173,4.35,3.796c0.786-0.104,1.55-0.822,2.338-0.23c0.276,0.336,0.297,1.033,0.047,1.472  c-0.685,0.283-2.413,0.587-1.432,1.778C469.633,45.317,469.786,58.092,462.946,65.655 M487.122,26.172l-0.025-0.695  c-1.683-1.433-3.385-3.126-5.497-4.286l0.255,9.896L487.122,26.172z M512.406,52.711l-0.489,1.06l-9.776,8.51  c-2.466-1.324-4.88-3.954-7.106-5.899c-0.293-1.467,1.698-1.779,2.095-3.185l-0.336-29.277c-0.111-0.863-0.722-1.197-1.347-1.873  l-1.117,0.376c-3.9,4.011-8.592,7.525-12.293,12.052c-0.293,2.096,1.747,3.519,3.254,4.784c-0.062,0.954-1.179,1.767-1.938,2.308  c-0.609,0.107-1.229-0.488-1.653,0.042l0.156,9.211c0.271,0.339,0.194,0.863,0.721,1.026c0,0,0.27,0.167,0.536,0.509  c2.275,0.542,4.422,3.012,6.823,1.727c1.892-1.007,2.693-3.455,5.038-3.521c0.266,0.433,0.382,1.298-0.124,1.66l-10.53,9.745  l-1.738,0.047l-9.23-4.189l-0.63-0.764l-0.515-32.836l0.573-1.321l14.104-8.975l1.403,0.397l6.046,5.143l1.037-0.111l5.948-5.022  c2.383,1.152,4.8,4.047,7.021,5.721c0.48,1.558-1.771,2.05-2.165,3.625l0.465,27.71c0.374,0.862,0.921,1.974,2.05,1.947  C510.345,53.546,511.218,50.657,512.406,52.711 M281.709,54.15l-0.458-27.455l-0.632-1.024l-4.249-2.584  c-0.349-0.251-1.14-0.581-1.654-0.129c-0.525,9.92-0.162,20.341,0.278,30.495l3.7,1.987  C279.925,55.849,280.854,54.784,281.709,54.15 M296.58,54.368l-0.158,1.047l-8.146,7.342c-2.191-0.726-4.146-2.417-5.923-3.934  c-0.54-0.594-0.296-1.293-0.665-2.065l-6.885,6.003c-3.148-0.877-5.964-2.363-8.878-3.941c-0.979-0.93-0.229-2.341-0.709-3.626  l-8.408,7.429l-1.555-0.047l-9.252-4.796c-0.039-1.393,1.951-1.705,2.266-3.102c0.282-12.175,0.155-23.638,0.102-35.724  c-1.157-1.1-3.396-0.347-4.979-0.913l-0.009-0.432c6.56-1.913,11.286-7.07,13.465-13.473c0.084-0.091,0.258-0.184,0.516-0.102  c0.456,3.897-0.229,7.478,0.565,11.457l6.528,0.351c0.625,0.588,0.035,1.476,0.142,2.257c-2.064,0.574-4.341-0.062-6.339,0.337  l-0.513,0.274l-0.046,34.504c0.386,1.557,2.044,1.683,3.276,2.343c1.92,0.039,2.282-2.225,4.213-1.674  c0.381-8.875-0.309-18.675,0.055-27.814c4.678-3.857,10.26-6.694,15.471-10.133l1.555,0.131l9.978,5.907  c0.735,1.287-1.512,1.955-1.481,3.084l0.303,27.889c-0.152,1.132,1.083,1.71,1.793,2.297  C294.607,55.548,295.145,52.837,296.58,54.368 M150.911,27.679l-0.015-0.785c-1.862-1.25-3.298-3.125-5.413-4.197l0.069,9.555  C147.347,31.077,149.385,29.197,150.911,27.679 M179.603,54.737c0.447,0.338,0.115,0.869-0.05,1.217l-7.891,7.339l-1.917-0.128  l-9.741-3.745c-0.471-1.288,1.518-1.687,1.745-2.827l0.017-29.374c0.128-1.56-0.951-3.276-2.36-3.675l-1.295,0.38l-11.362,10.645  c-1.279,0.988-1.056,2.894,0.017,3.994c0.8,0.676,1.693,1.437,2.228,2.202c-0.404,0.967-1.174,1.512-2.018,2.226l-1.491-0.305  c0.089,3.298-0.255,6.956,0.266,10.159c2.029,1.164,4.41,2.486,6.855,2.947c2.407-0.931,3.378-3.825,5.983-3.981  c0.448,0.516,0.201,1.304-0.22,1.746l-10.778,9.752c-3.756-0.769-7.363-2.67-10.724-4.408l-0.635-1.029V24.671  c4.78-3.42,9.67-6.071,14.534-9.245l1.227,0.407l6.927,5.637c2.053-1.267,3.896-4.008,6.025-5.543  c2.885,0.621,5.396,3.422,5.904,6.36l0.441,0.427l6.783-6.61l0.875-0.023l6.599,6.692l0.028,0.952l-9.821,9.908  c-0.519,0.099-0.959-0.06-1.058-0.583c0.731-1.845,2.364-2.667,3.195-4.166c-0.925-2.063-2.691-3.146-4.473-4.837  c-1.038,0.286-1.803,1.176-2.292,2.151l0.202,27.71c1.85,0.817,4.157,2.848,6.296,1.491  C177.951,54.696,178.986,54.408,179.603,54.737 M71.105,56.363L71.08,28.9l-0.602-2.937l-4.771-3.093  c-0.44-0.165-1.323-0.661-1.564,0.128l0.242,29.021c0.926,2.493,3.907,3.287,5.94,4.624L71.105,56.363z M79.98,53.521l-14.87,9.782  l-1.217,0.029c-3.003-2.093-6.766-2.956-8.759-6.287l0.125-31.382l15.39-9.873c3.248,1.218,6.164,3.139,9.002,5.235l0.466,1.292  C79.863,32.498,80.847,43.508,79.98,53.521 M34.247,26.13c-0.974-3.627,0.045-8-0.833-11.538c-1.451-2.484-5.367-2.728-7.313-0.768  c-3.137,3.299-3.616,8.007-3.323,12.344C26.421,26.16,30.518,26.573,34.247,26.13 M51.335,51.667  c0.624,0.417,0.297,1.207-0.047,1.649l-9.996,9.654l-0.864,0.196c-2.564-1.758-5.737-3.501-6.597-6.344  C34.134,48.643,33.765,41,33.914,33.35c-0.481-1.727-1.387-3.266-3.145-3.828c-2.618-0.539-5.175-1.603-7.935-0.924l-0.673,0.629  c0.51,9.72,5.369,22.626-2.604,30.307c-3.134,3.042-7.689,4.81-12.24,3.89c-3.673-1.128-6.182-4.103-7.065-7.726  c-0.763-2.845,0.279-5.831,2.063-7.616c1.438-1.255,3.247-1.991,5.337-1.961c1.92,0.47,3.938,1.111,4.86,2.997  c0.91,1.543,1.055,3.887,0.404,5.645c-0.568,1.404-1.759,2.388-3.223,3.032c-1.621,1.003-4.103-0.758-5.016,0.915  c0.122,1.212,1.095,1.885,2.063,2.472c2.46,0.973,5.136,0.208,6.827-1.575c2.823-4.936,1.281-10.894,0.008-16.163  c-3.396-10.34-7.341-24.928,0.582-34.254c6.013-6.065,14.92-8.039,23.809-6.967c4.713,0.743,9.893,2.867,12.263,6.975  c4.369,7.537,2.648,18.271-2.488,24.575c-0.346,0.182-0.591,0.708-1.034,0.374c1.034-3.766,2.604-6.762,3.197-10.602  c0.277-6.001-0.486-12.154-4.674-15.954C40.345,3.721,33.378,3.206,27.26,5.017c-4.736,1.602-6.881,6.179-7.359,10.971  c0.22,2.079-0.318,4.617,0.681,6.414c0.571-1.752,0.773-3.844,1.421-5.689c0.93-4.19,4.767-7.161,8.461-8.649  c3.72-0.876,8.589-0.917,11.352,1.876c3.614,5.383-1.718,14.123,5.231,17.33l-0.076,0.349c-2.675,0.682-5.825-0.11-8.679,0.576  c1.604,1.177,4.291,1.193,4.961,3.433l0.343,19.717c0.725,1.288,1.194,2.751,2.694,3.412C48.268,54.089,49.344,51.89,51.335,51.667   M361.439,32.159c-2.613-0.105-5.662-0.458-8.256,0.217l-1.563,6.557l0.275,0.516l7.654,0.147l0.586-0.533  C360.598,36.786,361.581,34.416,361.439,32.159 M426.486,17.419c-1.688-1.52-3.815-2.939-5.908-3.409l-7.628,7.503  c-0.247,0.437-0.313,1.22,0.131,1.56c1.227,0.488,1.886-1.005,3.014-1.034c0.524,0.333,0.896,0.844,1.166,1.359l0.207,27.803  c0.583,2.417-1.839,2.742-2.319,4.582l6.421,6l1.307,0.229l5.95-5.109c2.388-1.886-1.71-2.476-1.685-4.477l-0.258-26.673  c0.557-1.752,1.645-3.515,3.722-3.836c1.241,1.014,2.651,1.493,3.127,3.135l0.218,31.542l0.295,1.297  c2.024,1.333,3.821,3.55,6.276,4.18l8.249-6.995l0.488-1.143c-0.928-2.148-2.414,0.581-3.897,0.541  c-0.875-0.247-1.766-0.997-1.967-1.951l-0.067-29.374c0.134-1.482,2.037-1.791,1.735-3.173l-9.268-5.757l-1.568-0.129l-6.431,6.682  l-0.866,0.289C426.809,19.841,427.124,18.535,426.486,17.419 M112.252,18.437c-1.762-1.169-3.459-2.692-5.718-2.896l-5.423,5.36  c-0.746,1.151-2.805,2.16-1.998,3.526c1.334,0.751,1.712-1.172,2.931-1.117c0.699,0.239,0.975,0.669,1.25,1.269  c0.666,8.85,0.138,18.424,0.272,27.024c0.582,2.245-0.844,4.104-2.477,5.191c1.463,2.656,4.552,4.402,6.613,6.515l0.865,0.068  l6.547-5.732c0.476-1.579-1.884-2.123-2.272-3.59l-0.024-27.637l2.869-3.205c2.003,0.293,3.076,1.311,4.08,3.023l0.143,32.15  l0.379,1.116c2.203,1.166,3.916,3.467,6.184,3.925l7.983-6.985l0.67-1.146c-1.191-2.143-2.324,0.93-3.894,0.624  c-0.888-0.416-1.679-0.83-1.793-1.955c-0.183-10.336-0.43-19.718,0-29.897c0.32-1.051,1.876-1.438,1.67-2.647l-9.365-5.839  l-1.219-0.057l-7.285,7.146C112.603,21.471,113.154,19.541,112.252,18.437 M504.631,1.468c-1.237-0.918-2.475-1.761-4.205-1.37  c-1.898,0.397-2.729,1.725-3.209,3.477c-0.439,3.137,2.235,5.85,4.105,7.714c1.444-1.518,2.871-3.377,4.043-5.235  C506.018,4.561,505.541,2.748,504.631,1.468 M338.538,4.08l-0.52,0.013c-1.671,5.955-6.985,12.004-13.291,13.648l0.013,0.346  c1.588,0.739,4.244-0.544,4.99,1.345l0.224,35.107c-0.396,1.485-1.861,1.872-2.352,3.185c2.831,2.01,6.699,3.649,10.128,5.042  c3.419-2.177,5.866-4.936,8.753-7.622l0.324-0.966c-1.511-1.088-2.155,0.757-3.356,1.311c-1.651,0.04-3.494-0.688-4.232-2.147  l-0.305-31.628l0.266-3.048l6.509-0.522c0.507-0.534,0.391-1.746,0.107-2.346l-6.522-0.264l-0.452-0.599  C338.902,11.37,338.808,7.636,338.538,4.08 M309.253,4.065c-2.227-1.767-6.212-1.14-8.421,0.568  c-1.867,1.611-1.889,4.133-1.747,6.39c1.783,4.908,7.85,4.486,12.316,5.501c1.132,0.229,2.199,1.068,2.66,2.187  c0.52,12.937,0.288,24.329,0.182,36.76l-0.594,0.362c-2.306-1.59-5.618-2.114-6.396-5.137c-0.016-10.69-0.227-21.979-0.507-32.488  l-0.435-0.073c-2.82,1.722-5.735,3.107-8.199,5.347c-0.15,11.035-0.385,21.903,0.096,33.364c2.759,2.535,6.187,4.179,9.277,5.844  c5.21-3.183,11.123-6.554,15.979-10.328l-0.212-34.586l-0.98-3.973c-3.803-6.069-12.358-4.279-18.83-5.672  c-0.702-0.335-1.23-0.755-1.34-1.533c1.053-2.893,4.572-1.248,6.981-2.096L309.253,4.065z M391.214,4.527  c-4.644-4.835-13.271-5.565-19.363-2.709c-5.23,2.831-8.913,8.052-8.571,14.56c-0.334,3.832,2.174,6.811,5.168,8.297  c3.526,1.729,7.721-0.809,11.231,0.663c0.791,0.325,0.388,1.385,0.055,1.911c-2.117,2.228-6.059,1.199-8.757,1.009  c-0.152,0.699,0.886,0.758,1.328,1.185c3.262,1.218,7.16,0.941,9.787-1.474c1.944-2.137,2.724-5.545,1.606-8.474  c-2.45-4.104-7.81-2.747-12.065-2.726c-2.349-0.203-4.932,0.823-6.296-1.402c-0.382-1.117-0.24-2.508,0.348-3.397  c1.151-2.632,4.156-3.933,7.103-4.357c4.502-0.635,8.717,1.165,11.489,4.131c4.502,5.881,3.96,15.019,2.405,22.097  c-1.507,5.519-2.729,11.809-7.512,15.144c-1.104,1.077-3.646,0.098-3.598,2.183c-4.56,1.598-8.419,6.823-11.02,10.63  c0.088,0.173,0.367,0.515,0.711,0.419c1.35-1.429,3.049-2.776,4.938-3.694c3.022-0.949,6.089-0.071,8.721,0.9  c2.27,0.549,4.059,2.415,6.497,2.612c4.479-4.725,8.164-10.122,12.828-14.678c0.313,1.995,0.358,3.817,0.147,5.906  c-0.484,1.317-1.951,1.788-2.35,3.018l6.414,5.823l1.22,0.323c3.656-3.14,7.236-5.756,10.103-9.302  c-1.036-2.929-2.147,1.092-4.082,0.274c-0.875-0.322-1.509-1.085-1.704-2.039l-0.32-42.14l1.019-4.194  c0.998-1.772,2.621-2.854,4.605-3.427l-0.009-0.435c-3.829-0.072-8.549-0.904-11.701,1.176c-1.782,1.701-3.021,4.074-3.131,6.602  c-0.144,11.125-0.196,22.599-0.072,33.975l-8.744,11.01l-0.939,0.549c-2.563-1.5-5.468-2.734-8.44-3.43  c5.656-3.363,10.89-8.975,13.514-15.128C397.787,26.425,398.463,12.422,391.214,4.527 M236.764,7.525  c-2.608-0.45-4.318-2.58-6.358-4.002c-5.99-3.146-13.126-0.354-18.623,2.313c-8.557,4.917-14.299,14.803-14.454,25.41  c-0.292,12.088,4.393,24.913,14.355,30.3c7.389,3.461,17.8,2.836,23.648-2.876c9.68-8.687,9.883-24.25,6.002-36.314  c-5.08-7.948-14.91-1.782-22.298-2.021c-1.137-0.232-1.863-1.425-1.727-2.654c0.052-1.471,1.676-2.477,2.787-2.937  c0.352-0.181,1.3-0.384,0.767-1.065c-1.157-0.752-2.261,0.233-3.297,0.523c-3.747,2.966-5.503,8.668-4.075,13.661  c1.57,3.608,6.083,3.321,9.648,3.135c5.646,0.202,11.973-3.614,16.854-0.093c2.248,2.899,1.856,7.86,1.161,11.27  c-1.608,4.908-4.983,8.735-9.893,10.517c-5.248,1.88-10.864,0.024-15.273-2.385c-7.61-5.445-10.651-15.274-10.988-24.913  c0.249-7.045,1.068-15.41,8.392-18.122c7.846-2.377,10.941,6.408,17.814,6.661c4.19,0.758,7.167-1.841,9.087-4.585  c0.744-1.495,0.86-3.667,0.129-5.214c-0.466-1.119-1.528-1.875-2.661-2.107c-0.529-0.158-1.574-0.213-1.637,0.568  c0.092,0.253,0.363,0.764,0.88,0.579c0.966,0.332,1.949,1.261,1.978,2.386C239.015,6.773,237.806,7.413,236.764,7.525 M65.573,4.535  c-0.799-0.93-2.202-1.161-3.415-1.032c-1.555,0.469-2.478,1.623-2.869,3.196c-0.047,1.566,0.595,2.941,1.489,4.045  c0.889,0.673,1.384,2.837,2.669,2.278C64.774,10.641,68.442,7.763,65.573,4.535 M86.648,6.159C85.742,4.7,85.552,1.061,82.99,2.431  c0.407,2.421,2.372,4.455,2.182,7.332l0.755,38.735l-0.19,5.747c-0.4,1.311-1.699,1.604-2.191,2.835  c1.621,2.218,3.744,3.553,5.708,5.59l1.58,0.648l9.854-8.772l0.235-1.054c-1.083-1.619-2.328,0.76-3.627,0.883  c-1.046-0.232-1.849-0.997-2.143-2.03l-0.267-33.363c-0.105-4.174-0.757-9.28,0.881-13.15c0.72-2.28,2.892-2.249,4.334-3.591  c-2.877-0.355-6.442-0.35-9.468,0.078C88.458,2.544,87.926,5.342,86.648,6.159 M76.213,4.535c2.868,3.228-0.797,6.105-2.124,8.487  c-1.287,0.559-1.776-1.605-2.669-2.278c-0.897-1.104-1.537-2.479-1.489-4.045c0.394-1.573,1.312-2.727,2.871-3.196  C74.006,3.375,75.411,3.605,76.213,4.535"/>
</svg>